PathFileType	4	(X/Y/Z)	DARI_DATA/Captury_Subj6_bilateral_squat02.trc
DataRate	CameraRate	NumFrames	NumMarkers	Units	OrigDataRate	OrigDataStartFrame	OrigNumFrames
60	60	4	47	mm	59.99879837036133	1	204
Frame#	Time		LeftUpLeg_		RightUpLeg_		LeftLeg_		RightLeg_		LeftFoot_		RightFoot_		LeftToeBase_		RightToeBase_		Knee_Lateral_r		Knee_Lateral_l		Ankle_Lateral_r		Ankle_Lateral_l		LeftArm_		LeftForeArm_		LeftHand_		LeftHandEE		RightArm_		RightForeArm_		RightHand_		RightHandEE		Spine_		Spine1_		Spine2_		Spine3_		Spine4_		Spine5_		Spine_x		Spine_y		Spine_z		RASI		LASI		RIPS		LIPS		RTHI		LTHI		RTIB		LTIB		RTOE		LTOE		RHEE		LHEE		RHipAngles		LHipAngles		RKneeAngles		LKneeAngles		RAnkleAngles		LAnkleAngles
			X1	Y1	Z1	X2	Y2	Z2	X3	Y3	Z3	X4	Y4	Z4	X5	Y5	Z5	X6	Y6	Z6	X7	Y7	Z7	X8	Y8	Z8	X9	Y9	Z9	X10	Y10	Z10	X11	Y11	Z11	X12	Y12	Z12	X13	Y13	Z13	X14	Y14	Z14	X15	Y15	Z15	X16	Y16	Z16	X17	Y17	Z17	X18	Y18	Z18	X19	Y19	Z19	X20	Y20	Z20	X21	Y21	Z21	X22	Y22	Z22	X23	Y23	Z23	X24	Y24	Z24	X25	Y25	Z25	X26	Y26	Z26	X27	Y27	Z27	X28	Y28	Z28	X29	Y29	Z29	X30	Y30	Z30	X31	Y31	Z31	X32	Y32	Z32	X33	Y33	Z33	X34	Y34	Z34	X35	Y35	Z35	X36	Y36	Z36	X37	Y37	Z37	X38	Y38	Z38	X39	Y39	Z39	X40	Y40	Z40	X41	Y41	Z41	X42	Y42	Z42	X43	Y43	Z43	X44	Y44	Z44	X45	Y45	Z45	X46	Y46	Z46	X47	Y47	Z47

1	0.00000	-98.53275	-145.62560	20.68233	98.53275	-145.62560	20.68233	-123.01183	-625.28333	13.18423	123.01183	-625.28333	13.18423	-146.96065	-1066.73633	51.14920	146.96065	-1066.73633	51.14920	-146.96065	-1120.00134	-90.32266	146.96065	-1120.00134	-90.32266	178.14490	-625.28333	13.18423	-178.14490	-625.28333	13.18423	202.14227	-1066.73633	73.22185	-202.14227	-1066.73633	73.22185	-151.24092	464.64420	5.12821	-493.90399	449.00449	29.58713	-765.95087	430.20453	49.00555	-865.23444	423.34348	56.09184	151.24092	464.64420	5.12821	493.90399	449.00449	29.58713	765.95087	430.20453	49.00555	865.23444	423.34348	56.09184	0.00000	-37.83748	42.41425	0.00000	85.71456	20.35139	0.00000	179.37140	30.38999	0.00000	291.45074	63.70491	0.00000	457.36343	46.71651	0.00000	0.00000	0.00000	55.15715	-37.83748	42.41425	0.00000	17.31968	42.41425	0.00000	-37.83748	97.57141	165.47147	-70.93177	-89.96291	-165.47147	-70.93177	-89.96291	44.12572	-70.93177	75.50854	-44.12572	-70.93177	75.50854	186.78419	-366.25421	20.68233	-186.78419	-366.25421	20.68233	178.19345	-823.93719	13.18423	-178.19345	-890.15515	13.18423	146.96065	-1120.00134	-175.54666	-146.96065	-1120.00134	-175.54666	146.96065	-1143.99060	106.33083	-146.96065	-1143.99060	106.33083	-0.00000	-0.00000	-0.00000	-0.00000	0.00000	0.00000	0.00000	-0.00000	-0.00000	0.00000	0.00000	0.00000	-0.00000	-0.00000	-0.00000	-0.00000	0.00000	0.00000
2	0.01667	-80.48728	1002.74603	14.05287	116.35433	1008.06964	21.78883	-149.12247	527.38477	20.98499	169.48933	530.73743	29.38536	-201.78229	89.65231	71.11513	214.04158	92.22626	80.55894	-226.90271	33.49152	-66.96594	240.97908	38.29773	-58.06837	224.21742	534.09393	35.14956	-203.72171	532.51184	26.66757	266.51431	95.66723	108.25344	-254.25394	94.41980	98.61446	-123.19209	1590.13562	43.14441	-198.69290	1255.29968	22.04166	-205.50031	998.37659	-71.14731	-178.91708	906.88287	-100.75725	179.37213	1573.57446	32.47934	255.18491	1240.25146	-5.05823	215.22385	991.04138	-110.11780	192.73169	895.55804	-91.90897	13.81646	1110.36121	50.45387	13.18461	1230.47998	40.02051	14.64946	1317.75256	58.44570	19.43774	1421.14526	101.56918	30.17525	1582.56543	99.35983	0.00000	0.00000	0.00000	68.91096	1111.85120	52.61910	12.11332	1165.20764	56.04692	11.81452	1104.70764	105.28398	184.92650	1095.49207	-77.99854	-145.64046	1086.55176	-90.98997	57.71278	1075.25330	81.72829	-30.43841	1072.86914	78.26392	216.85580	793.26599	36.76139	-187.94194	791.30566	28.60649	235.42490	335.68066	40.05000	-223.52820	267.51349	32.51090	257.19748	28.70316	-141.18298	-238.65079	30.04444	-151.30594	203.16425	15.23227	135.02773	-202.82347	14.20100	128.72809	7.12203	1.86415	3.79645	6.53573	6.77469	8.28941	0.05873	-0.14139	-0.02933	0.02793	-0.96631	-0.16546	-0.50929	4.87369	-3.55322	0.61546	1.85081	2.17412
3	0.03333	-80.60416	1003.14655	14.12113	116.25335	1008.33044	21.54189	-149.65915	527.84454	20.93859	170.21100	531.09619	29.48741	-201.99777	90.05557	70.91068	214.00931	92.50653	80.63961	-226.95879	33.73117	-67.13262	240.91615	38.44553	-57.94209	224.93036	534.55133	35.27626	-204.24731	533.01843	26.68489	266.47937	95.87244	108.34846	-254.42543	94.81001	98.49605	-123.13319	1589.92859	43.05913	-198.62088	1255.08582	22.01783	-205.31927	998.14526	-71.13113	-178.99690	906.59912	-100.81197	179.54976	1573.69409	32.26870	255.11961	1240.29651	-5.09592	215.58905	990.86243	-109.78596	192.26573	895.51147	-91.93266	13.83361	1110.68909	50.38921	13.24928	1230.69812	39.97778	14.75763	1317.85181	58.41742	19.58699	1421.11694	101.56114	30.28267	1582.42761	99.39098	0.00000	0.00000	0.00000	68.93256	1112.14001	52.46622	12.17802	1165.53577	55.99446	11.91574	1105.02747	105.22148	184.72667	1095.72192	-78.34036	-145.86699	1087.01636	-90.80244	57.75539	1075.54480	81.58704	-30.40292	1073.22339	78.26381	217.11923	793.71136	36.70918	-188.23254	791.79700	28.71061	235.81445	335.92761	40.15516	-223.90352	267.92612	32.44017	257.15964	28.77883	-141.04346	-238.65192	30.24910	-151.47879	202.95711	15.56534	135.14780	-202.94913	14.65447	128.59088	7.15912	2.00310	3.91849	6.52189	6.78687	8.26190	0.08189	-0.34047	-0.04422	0.02545	-1.05016	-0.13923	-0.46876	4.88506	-3.56173	0.69630	1.72613	2.12713
4	0.05000	-80.28010	1003.29175	14.17138	116.55770	1008.55579	22.04333	-149.16615	527.96039	20.64201	170.35841	531.29749	29.59748	-202.54878	90.32016	70.81242	214.01556	92.67355	80.57644	-227.01601	33.73428	-67.21235	241.28215	38.57536	-57.92039	225.06209	534.73047	35.54549	-203.76862	533.11084	26.27225	266.41150	96.04002	108.42508	-255.01236	95.23805	98.30061	-123.14510	1589.87390	42.76447	-198.58458	1255.00378	21.98712	-205.05682	998.00037	-71.00411	-179.05664	906.38721	-100.76201	179.47470	1573.82214	32.12990	255.01218	1240.40918	-5.16236	215.94543	990.75372	-109.49823	191.77432	895.62201	-91.60302	14.03066	1110.87488	50.64885	13.42293	1230.88843	40.20425	14.86064	1318.05737	58.61363	19.57450	1421.35327	101.71514	30.19943	1582.67505	99.47202	0.00000	0.00000	0.00000	69.12409	1112.34827	52.85215	12.34003	1165.72119	56.24665	11.98931	1105.21606	105.47696	185.22456	1095.96851	-77.68739	-145.33598	1087.12817	-90.90720	57.89497	1075.75049	81.94968	-30.25451	1073.39307	78.42439	217.31976	793.89081	37.25187	-187.85818	791.89478	28.44004	235.93069	336.12085	40.30946	-223.99800	268.21228	32.18488	257.72778	28.91034	-140.98218	-238.33287	30.13218	-151.60480	202.88316	15.74674	135.08856	-203.92804	15.05421	128.66023	7.09537	1.96025	3.95046	6.49388	6.78899	8.26855	0.05677	-0.32206	-0.05734	-0.02324	-0.89766	-0.11886	-0.41774	4.86715	-3.51853	0.77603	1.56964	2.14412
